<svg xmlns="http://www.w3.org/2000/svg" width="13.542" height="16.667" viewBox="0 0 13.542 16.667">
  <path id="JamIcons_settings_alt" data-name="JamIcons settings alt" d="M9.375,12.5V1.042a1.042,1.042,0,1,1,2.083,0V12.5H12.5a1.042,1.042,0,0,1,0,2.083H11.459v1.042a1.042,1.042,0,0,1-2.083,0V14.584H8.333a1.042,1.042,0,0,1,0-2.083ZM4.167,5.208H5.208a1.042,1.042,0,0,1,0,2.083H4.167v8.333a1.042,1.042,0,0,1-2.083,0V7.292H1.042a1.042,1.042,0,0,1,0-2.083H2.083V1.042a1.042,1.042,0,1,1,2.083,0Z" fill="#0a0a0a"/>
</svg>
